# xmcd
#
# Track frame offsets: 
#        150
#        26865
#        47997
#        73237
#        91495
#        109037
#        125737
#        148407
#        170125
#        189247
#        202675
#        217430
#        239767
#        255315
#
# Disc length: 3685 seconds
#
# Revision: 1
# Processed by: cddbd v1.5.2PL0 Copyright (c) Steve Scherf et al.
# Submitted via: ExactAudioCopy v0.99pb5
#
DISCID=e40e630e
DTITLE=Achison, Geoff and The Souldiggers - Little Big Men
DYEAR=2005
DGENRE=Blues
TTITLE0=Crazy Horse
TTITLE1=News
TTITLE2=Happening
TTITLE3=Rule The World
TTITLE4=Little Big Men
TTITLE5=Feel Like A King
TTITLE6=Wagging The Dog
TTITLE7=Zombify
TTITLE8=Bit By Bit
TTITLE9=Fake Identity
TTITLE10=Living In Fear
TTITLE11=Never Give It Up
TTITLE12=Reach For The Sky
TTITLE13=Boy
EXTD=
EXTT0=
EXTT1=
EXTT2=
EXTT3=
EXTT4=
EXTT5=
EXTT6=
EXTT7=
EXTT8=
EXTT9=
EXTT10=
EXTT11=
EXTT12=
EXTT13=
PLAYORDER=
